<svg width="1830" height="914" viewBox="0 0 1830 914" fill="none" xmlns="http://www.w3.org/2000/svg">
<path d="M200.203 856.411H314.302C322.177 856.411 328.562 850.026 328.562 842.146C328.562 834.271 322.177 827.88 314.302 827.88H200.203C192.328 827.88 185.943 834.271 185.943 842.146C185.943 850.026 192.328 856.411 200.203 856.411Z" fill="white"/>
<path d="M214.469 71.8021C214.469 72.7396 214.375 73.6666 214.193 74.5885C214.01 75.5052 213.74 76.3958 213.38 77.2604C213.021 78.1302 212.583 78.9479 212.062 79.7291C211.542 80.5052 210.953 81.2291 210.292 81.8906C209.63 82.5521 208.906 83.1458 208.13 83.6666C207.349 84.1875 206.526 84.625 205.661 84.9844C204.797 85.3437 203.906 85.6146 202.99 85.7969C202.068 85.9791 201.141 86.0677 200.203 86.0677C199.271 86.0677 198.344 85.9791 197.422 85.7969C196.505 85.6146 195.615 85.3437 194.75 84.9844C193.88 84.625 193.062 84.1875 192.281 83.6666C191.505 83.1458 190.781 82.5521 190.12 81.8906C189.458 81.2291 188.87 80.5052 188.349 79.7291C187.828 78.9479 187.385 78.1302 187.031 77.2604C186.672 76.3958 186.401 75.5052 186.219 74.5885C186.036 73.6666 185.943 72.7396 185.943 71.8021C185.943 70.8646 186.036 69.9375 186.219 69.0208C186.401 68.0989 186.672 67.2083 187.031 66.3437C187.385 65.4791 187.828 64.6562 188.349 63.8802C188.87 63.0989 189.458 62.3802 190.12 61.7135C190.781 61.0521 191.505 60.4635 192.281 59.9427C193.062 59.4219 193.88 58.9844 194.75 58.625C195.615 58.2656 196.505 57.9948 197.422 57.8125C198.344 57.6302 199.271 57.5364 200.203 57.5364C201.141 57.5364 202.068 57.6302 202.99 57.8125C203.906 57.9948 204.797 58.2656 205.661 58.625C206.526 58.9844 207.349 59.4219 208.13 59.9427C208.906 60.4635 209.63 61.0521 210.292 61.7135C210.953 62.3802 211.542 63.0989 212.062 63.8802C212.583 64.6562 213.021 65.4791 213.38 66.3437C213.74 67.2083 214.01 68.0989 214.193 69.0208C214.375 69.9375 214.469 70.8646 214.469 71.8021Z" fill="white"/>
<path d="M271.516 71.8021C271.516 72.7396 271.422 73.6666 271.24 74.5885C271.057 75.5052 270.786 76.3958 270.427 77.2604C270.073 78.1302 269.63 78.9479 269.109 79.7291C268.588 80.5052 268 81.2291 267.338 81.8906C266.677 82.5521 265.953 83.1458 265.177 83.6666C264.396 84.1875 263.578 84.625 262.708 84.9844C261.844 85.3437 260.953 85.6146 260.036 85.7969C259.115 85.9791 258.187 86.0677 257.255 86.0677C256.318 86.0677 255.391 85.9791 254.469 85.7969C253.552 85.6146 252.661 85.3437 251.797 84.9844C250.932 84.625 250.109 84.1875 249.328 83.6666C248.552 83.1458 247.828 82.5521 247.167 81.8906C246.505 81.2291 245.917 80.5052 245.396 79.7291C244.875 78.9479 244.437 78.1302 244.078 77.2604C243.719 76.3958 243.448 75.5052 243.266 74.5885C243.083 73.6666 242.99 72.7396 242.99 71.8021C242.99 70.8646 243.083 69.9375 243.266 69.0208C243.448 68.0989 243.719 67.2083 244.078 66.3437C244.437 65.4791 244.875 64.6562 245.396 63.8802C245.917 63.0989 246.505 62.3802 247.167 61.7135C247.828 61.0521 248.552 60.4635 249.328 59.9427C250.109 59.4219 250.932 58.9844 251.797 58.625C252.661 58.2656 253.552 57.9948 254.469 57.8125C255.391 57.6302 256.318 57.5364 257.255 57.5364C258.187 57.5364 259.115 57.6302 260.036 57.8125C260.953 57.9948 261.844 58.2656 262.708 58.625C263.578 58.9844 264.396 59.4219 265.177 59.9427C265.953 60.4635 266.677 61.0521 267.338 61.7135C268 62.3802 268.588 63.0989 269.109 63.8802C269.63 64.6562 270.073 65.4791 270.427 66.3437C270.786 67.2083 271.057 68.0989 271.24 69.0208C271.422 69.9375 271.516 70.8646 271.516 71.8021Z" fill="white"/>
<path d="M328.562 71.8021C328.562 72.7396 328.469 73.6666 328.286 74.5885C328.104 75.5052 327.833 76.3958 327.479 77.2604C327.12 78.1302 326.677 78.9479 326.161 79.7291C325.641 80.5052 325.047 81.2291 324.385 81.8906C323.724 82.5521 323.005 83.1458 322.224 83.6666C321.448 84.1875 320.625 84.625 319.76 84.9844C318.891 85.3437 318 85.6146 317.083 85.7969C316.167 85.9791 315.24 86.0677 314.302 86.0677C313.365 86.0677 312.437 85.9791 311.516 85.7969C310.599 85.6146 309.708 85.3437 308.844 84.9844C307.979 84.625 307.156 84.1875 306.375 83.6666C305.599 83.1458 304.88 82.5521 304.213 81.8906C303.552 81.2291 302.963 80.5052 302.443 79.7291C301.922 78.9479 301.484 78.1302 301.125 77.2604C300.766 76.3958 300.495 75.5052 300.312 74.5885C300.13 73.6666 300.036 72.7396 300.036 71.8021C300.036 70.8646 300.13 69.9375 300.312 69.0208C300.495 68.0989 300.766 67.2083 301.125 66.3437C301.484 65.4791 301.922 64.6562 302.443 63.8802C302.963 63.0989 303.552 62.3802 304.213 61.7135C304.88 61.0521 305.599 60.4635 306.375 59.9427C307.156 59.4219 307.979 58.9844 308.844 58.625C309.708 58.2656 310.599 57.9948 311.516 57.8125C312.437 57.6302 313.365 57.5364 314.302 57.5364C315.24 57.5364 316.167 57.6302 317.083 57.8125C318 57.9948 318.891 58.2656 319.76 58.625C320.625 58.9844 321.448 59.4219 322.224 59.9427C323.005 60.4635 323.724 61.0521 324.385 61.7135C325.047 62.3802 325.641 63.0989 326.156 63.8802C326.677 64.6562 327.12 65.4791 327.479 66.3437C327.833 67.2083 328.104 68.0989 328.286 69.0208C328.469 69.9375 328.562 70.8646 328.562 71.8021Z" fill="white"/>
<path d="M228.729 685.224C228.729 716.74 254.271 742.286 285.776 742.286H513.969C545.474 742.286 571.016 716.74 571.016 685.224V456.974C571.016 425.464 545.474 399.911 513.969 399.911H285.776C254.271 399.911 228.729 425.464 228.729 456.974V685.224ZM257.255 456.974C257.255 441.245 270.047 428.443 285.776 428.443H513.969C529.698 428.443 542.49 441.245 542.49 456.974V685.224C542.49 700.958 529.698 713.755 513.969 713.755H285.776C270.047 713.755 257.255 700.958 257.255 685.224V456.974Z" fill="white"/>
<path d="M372.349 371.38C403.297 371.38 428.396 346.281 428.396 315.318V227.724C428.396 196.76 403.297 171.661 372.349 171.661H284.776C253.828 171.661 228.729 196.76 228.729 227.724V315.318C228.729 346.281 253.828 371.38 284.776 371.38H372.349ZM257.255 315.318V227.724C257.255 212.542 269.599 200.193 284.776 200.193H372.349C387.526 200.193 399.87 212.542 399.87 227.724V315.318C399.87 330.5 387.526 342.849 372.349 342.849H284.776C269.599 342.849 257.255 330.5 257.255 315.318Z" fill="white"/>
<path d="M57.0937 913.474H457.411C488.646 913.474 513.969 887.927 513.969 856.411V770.818H29.0624V143.13H485.443V201.24C489.193 200.599 513.969 200.193 513.969 200.193V57.5364C513.969 26.0208 488.646 0.473938 457.411 0.473938H57.0937C25.8541 0.473938 0.536377 26.0208 0.536377 57.5364V856.411C0.536377 887.927 25.8541 913.474 57.0937 913.474ZM29.0624 57.5364C29.0624 41.8073 41.6405 29.0052 57.0937 29.0052H457.411C472.865 29.0052 485.443 41.8073 485.443 57.5364V114.599H29.0624V57.5364ZM29.0624 799.349H485.443V856.411C485.443 872.146 472.865 884.943 457.411 884.943H57.0937C41.6405 884.943 29.0624 872.146 29.0624 856.411V799.349Z" fill="white"/>
<path d="M456.922 268.771V331.333C456.922 353.453 474.844 371.38 496.948 371.38H559.51C581.615 371.38 599.536 353.453 599.536 331.333V268.771C599.536 246.656 581.615 228.724 559.51 228.724H496.948C474.844 228.724 456.922 246.656 456.922 268.771ZM571.016 268.771V331.333C571.016 337.688 565.854 342.849 559.51 342.849H496.948C490.604 342.849 485.443 337.688 485.443 331.333V268.771C485.443 262.422 490.604 257.255 496.948 257.255H559.51C565.854 257.255 571.016 262.422 571.016 268.771Z" fill="white"/>
<path d="M97.6147 399.911C75.5105 399.911 57.5886 417.844 57.5886 439.958V502.521C57.5886 524.641 75.5105 542.568 97.6147 542.568H160.177C182.281 542.568 200.203 524.641 200.203 502.521V439.958C200.203 417.844 182.281 399.911 160.177 399.911H97.6147ZM171.682 439.958V502.521C171.682 508.87 166.521 514.036 160.177 514.036H97.6147C91.2709 514.036 86.1095 508.87 86.1095 502.521V439.958C86.1095 433.609 91.2709 428.443 97.6147 428.443H160.177C166.521 428.443 171.682 433.609 171.682 439.958Z" fill="white"/>
<path d="M509.825 523.146C509.825 485.776 489.33 467.089 448.335 467.089H389.867V662.698H448.335C489.33 662.698 509.825 644.917 509.825 609.651V523.146ZM489.028 522.844V609.047C489.028 631.651 474.861 642.808 446.83 642.808H411.867V487.282H448.039C470.039 487.282 489.028 493.006 489.028 522.844Z" fill="white"/>
<path d="M696.383 662.698V642.203H617.414V571.974H686.435V551.479H617.414V487.584H693.971V467.089H595.414V662.698H696.383Z" fill="white"/>
<path d="M883.247 662.698V467.089H851.602L806.992 630.146L806.388 629.844L759.372 467.089H726.518V662.698H746.107V497.229H747.315L795.841 662.698H815.732L862.753 497.229H863.956V662.698H883.247Z" fill="white"/>
<path d="M1046.3 662.698L989.33 467.089H964.013L905.544 662.698H927.242L943.82 603.323H1006.81L1023.39 662.698H1046.3ZM1001.39 583.125H949.549L974.263 494.818H976.372L1001.39 583.125Z" fill="white"/>
<path d="M1126.16 483.964C1138.22 483.964 1151.48 486.375 1165.95 491.198V469.5C1152.99 465.579 1139.42 463.771 1125.86 463.771C1084.57 463.771 1064.07 482.459 1064.07 519.834V612.667C1064.07 647.927 1084.57 665.714 1125.86 665.714C1140.03 665.714 1153.89 663.901 1166.85 659.985V637.683C1152.39 642.506 1139.12 644.917 1127.06 644.917C1099.04 644.917 1085.17 633.766 1085.17 611.157V519.532C1085.17 489.693 1104.16 483.964 1126.16 483.964Z" fill="white"/>
<path d="M1197.57 480.776L1197.43 656.287L1319.16 568.703L1197.57 480.776Z" fill="white"/>
<path d="M1238.49 483.349L1356.54 568.703L1238.43 653.641L1238.49 483.349ZM1238.49 480.568C1238.08 480.568 1237.66 480.635 1237.24 480.844C1236.34 481.333 1235.71 482.307 1235.71 483.349L1235.65 653.641C1235.65 654.682 1236.2 655.656 1237.17 656.146C1237.59 656.354 1238.01 656.422 1238.43 656.422C1238.98 656.422 1239.54 656.213 1240.02 655.865L1358.14 570.932C1358.83 570.375 1359.32 569.536 1359.32 568.703C1359.32 567.797 1358.9 566.963 1358.14 566.479L1240.16 481.125C1239.68 480.776 1239.12 480.568 1238.49 480.568Z" fill="white"/>
<path d="M1277.68 483.49L1395.65 568.844L1277.54 653.781L1277.68 483.49ZM1277.68 480.703C1277.26 480.703 1276.84 480.776 1276.43 480.984C1275.53 481.469 1274.9 482.443 1274.9 483.49L1274.76 653.781C1274.76 654.823 1275.32 655.797 1276.29 656.286C1276.71 656.495 1277.12 656.562 1277.54 656.562C1278.1 656.562 1278.65 656.354 1279.14 656.005L1397.25 571.068C1397.95 570.51 1398.43 569.677 1398.43 568.844C1398.43 567.938 1398.02 567.104 1397.25 566.615L1279.35 481.26C1278.86 480.917 1278.23 480.703 1277.68 480.703Z" fill="white"/>
<path d="M1487.28 549.884H1473.97C1462.92 549.884 1455.71 547.853 1455.71 535.228V518.54C1455.71 511.998 1457.28 507.264 1460.67 504.332C1464.28 501.629 1471.27 500.275 1481.64 500.275C1488.86 500.275 1498.56 501.629 1511.18 504.108V487.644C1500.13 486.066 1490.66 485.165 1482.77 485.165C1466.31 485.165 1455.03 487.873 1448.94 493.509C1442.85 499.144 1439.7 507.717 1439.7 519.217V530.941C1439.7 556.42 1448.94 566.118 1469.24 566.118H1482.09C1494.04 566.118 1500.36 569.051 1500.36 583.259V602.202C1500.36 609.191 1498.33 613.926 1494.27 616.181C1490.21 618.66 1484.12 619.79 1476.46 619.79C1466.76 619.79 1455.26 617.983 1441.95 614.15V632.415C1455.26 634.894 1466.31 636.025 1475.33 636.025C1489.53 636.025 1499.9 633.092 1506.45 627.004C1513.21 621.139 1516.59 610.316 1516.59 594.759V584.16C1516.59 558.004 1508.25 549.884 1487.28 549.884Z" fill="white"/>
<path d="M1561.22 603.103V537.931H1590.54V524.629H1561.22V490.801H1545.89V524.629H1527.62V537.931H1545.89V601.972C1545.89 628.806 1553.11 636.025 1573.4 636.025C1579.26 636.025 1585.13 635.347 1590.54 634.222V620.915C1584.23 622.045 1580.16 622.717 1578.36 622.717C1565.28 622.717 1561.22 619.79 1561.22 603.103Z" fill="white"/>
<path d="M1679.6 561.384C1679.6 554.17 1678.93 548.082 1677.57 543.118C1675.09 533.42 1672.16 528.462 1664.72 525.306C1656.6 522.144 1652.54 522.374 1641.72 522.374C1631.12 522.374 1626.83 522.144 1618.94 525.306C1608.12 529.587 1604.06 542.441 1604.06 561.384V599.269C1604.06 615.28 1606.76 625.879 1614.65 630.613C1623 636.025 1628.86 636.025 1641.72 636.025C1652.09 636.025 1656.83 636.025 1664.72 633.092C1675.32 629.035 1679.6 617.535 1679.6 599.269V561.384ZM1664.04 602.202C1664.04 611.217 1662.92 617.082 1658.4 619.79C1653.22 622.946 1649.83 622.717 1641.72 622.717C1633.82 622.717 1630.22 622.946 1625.25 619.79C1620.74 617.082 1619.62 611.217 1619.62 602.202V558.004C1619.62 547.853 1621.2 541.764 1624.13 539.285C1627.28 536.806 1633.14 535.676 1641.72 535.676C1650.51 535.676 1656.37 536.806 1659.31 539.285C1662.46 541.764 1664.04 547.853 1664.04 558.004V602.202Z" fill="white"/>
<path d="M1717.47 542.441V524.629H1703.26V633.769H1718.37V556.874C1718.37 541.993 1726.71 539.738 1738.89 539.738H1747.23V522.374H1739.79C1731 522.374 1717.47 530.941 1717.47 542.441Z" fill="white"/>
<path d="M1795.71 522.374C1772.48 522.374 1759.4 530.488 1759.4 559.582V602.65C1759.4 624.972 1772.03 636.025 1797.06 636.025C1806.53 636.025 1816.45 634.446 1826.6 631.514V615.957C1816 619.561 1806.75 621.368 1799.09 621.368C1785.11 621.368 1774.73 617.306 1774.73 600.17V583.707H1829.76V559.582C1829.76 530.488 1818.03 522.374 1795.71 522.374ZM1794.8 535.905C1806.98 535.905 1814.65 538.384 1814.65 553.264V570.405H1774.73V553.264C1774.73 538.384 1782.85 535.905 1794.8 535.905Z" fill="white"/>
</svg>
