<svg width="1022" height="836" viewBox="0 0 1022 836" fill="none" xmlns="http://www.w3.org/2000/svg">
<path d="M175.848 777.306H276.356C283.304 777.306 288.907 771.516 288.907 764.363C288.907 757.209 283.304 751.385 276.356 751.385H175.848C168.933 751.385 163.297 757.209 163.297 764.363C163.297 771.516 168.933 777.306 175.848 777.306Z" fill="white"/>
<path d="M188.432 64.7868C188.432 66.524 188.104 68.159 187.449 69.7599C186.826 71.3268 185.909 72.7233 184.729 73.9496C183.549 75.1758 182.206 76.0955 180.665 76.7427C179.125 77.424 177.519 77.7305 175.848 77.7305C174.21 77.7305 172.604 77.424 171.064 76.7427C169.523 76.0955 168.147 75.1758 166.967 73.9496C165.787 72.7233 164.903 71.3268 164.247 69.7599C163.625 68.159 163.297 66.524 163.297 64.7868C163.297 63.0836 163.625 61.4146 164.247 59.8477C164.903 58.2468 165.787 56.8502 166.967 55.624C168.147 54.3977 169.523 53.478 171.064 52.8308C172.604 52.1496 174.21 51.843 175.848 51.843C177.519 51.843 179.125 52.1496 180.665 52.8308C182.206 53.478 183.549 54.3977 184.729 55.624C185.909 56.8502 186.826 58.2468 187.449 59.8477C188.104 61.4146 188.432 63.0836 188.432 64.7868Z" fill="white"/>
<path d="M238.67 58.7868C238.67 60.524 238.342 62.159 237.72 63.7599C237.064 65.3268 236.179 66.7233 235 67.9496C233.82 69.1758 232.443 70.0955 230.903 70.7427C229.363 71.424 227.757 71.7305 226.119 71.7305C224.447 71.7305 222.842 71.424 221.301 70.7427C219.761 70.0955 218.385 69.1758 217.238 67.9496C216.058 66.7233 215.14 65.3268 214.485 63.7599C213.862 62.159 213.535 60.524 213.535 58.7868C213.535 57.0836 213.862 55.4146 214.485 53.8477C215.14 52.2468 216.058 50.8502 217.238 49.624C218.385 48.3977 219.761 47.478 221.301 46.8308C222.842 46.1496 224.447 45.843 226.119 45.843C227.757 45.843 229.363 46.1496 230.903 46.8308C232.443 47.478 233.82 48.3977 235 49.624C236.179 50.8502 237.064 52.2468 237.72 53.8477C238.342 55.4146 238.67 57.0836 238.67 58.7868Z" fill="white"/>
<path d="M288.908 62.7868C288.908 64.524 288.58 66.159 287.957 67.7599C287.302 69.3268 286.417 70.7233 285.237 71.9496C284.058 73.1758 282.681 74.0955 281.174 74.7427C279.633 75.424 278.028 75.7305 276.356 75.7305C274.685 75.7305 273.079 75.424 271.539 74.7427C269.999 74.0955 268.655 73.1758 267.476 71.9496C266.296 70.7233 265.378 69.3268 264.756 67.7599C264.1 66.159 263.805 64.524 263.805 62.7868C263.805 61.0836 264.1 59.4146 264.756 57.8477C265.378 56.2468 266.296 54.8502 267.476 53.624C268.655 52.3977 269.999 51.478 271.539 50.8308C273.079 50.1496 274.685 49.843 276.356 49.843C278.028 49.843 279.633 50.1496 281.174 50.8308C282.681 51.478 284.058 52.3977 285.237 53.624C286.417 54.8502 287.302 56.2468 287.957 57.8477C288.58 59.4146 288.908 61.0836 288.908 62.7868Z" fill="white"/>
<path d="M200.983 621.845C200.983 650.457 223.464 673.654 251.221 673.654H452.205C479.962 673.654 502.442 650.457 502.442 621.845V414.575C502.442 385.962 479.962 362.766 452.205 362.766H251.221C223.464 362.766 200.983 385.962 200.983 414.575V621.845ZM226.119 414.575C226.119 400.268 237.359 388.653 251.221 388.653H452.205C466.067 388.653 477.34 400.268 477.34 414.575V621.845C477.34 636.151 466.067 647.767 452.205 647.767H251.221C237.359 647.767 226.119 636.151 226.119 621.845V414.575Z" fill="white"/>
<path d="M327.479 336.844C354.744 336.844 376.832 314.056 376.832 285.921V206.385C376.832 178.283 354.744 155.461 327.479 155.461H250.336C223.104 155.461 200.983 178.283 200.983 206.385V285.921C200.983 314.056 223.104 336.844 250.336 336.844H327.479ZM226.119 285.921V206.385C226.119 192.589 236.966 181.383 250.336 181.383H327.479C340.849 181.383 351.729 192.589 351.729 206.385V285.921C351.729 299.716 340.849 310.922 327.479 310.922H250.336C236.966 310.922 226.119 299.716 226.119 285.921Z" fill="white"/>
<path d="M49.8117 829.115H402.393C429.921 829.115 452.205 805.919 452.205 777.306V699.576H25.1352V129.574H427.102V182.337C430.379 181.758 452.205 181.383 452.205 181.383V51.8431C452.205 23.2306 429.921 0 402.393 0H49.8117C22.2842 0 0 23.2306 0 51.8431V777.306C0 805.919 22.2842 829.115 49.8117 829.115ZM25.1352 51.8431C25.1352 37.5369 36.2118 25.9216 49.8117 25.9216H402.393C415.993 25.9216 427.102 37.5369 427.102 51.8431V103.652H25.1352V51.8431ZM25.1352 725.497H427.102V777.306C427.102 791.578 415.993 803.228 402.393 803.228H49.8117C36.2118 803.228 25.1352 791.578 25.1352 777.306V725.497Z" fill="white"/>
<path d="M401.967 243.649V300.465C401.967 320.562 417.762 336.844 437.228 336.844H492.316C511.782 336.844 527.577 320.562 527.577 300.465V243.649C527.577 223.586 511.782 207.304 492.316 207.304H437.228C417.762 207.304 401.967 223.586 401.967 243.649ZM502.442 243.649V300.465C502.442 306.256 497.92 310.923 492.316 310.923H437.228C431.624 310.923 427.102 306.256 427.102 300.465V243.649C427.102 237.893 431.624 233.192 437.228 233.192H492.316C497.92 233.192 502.442 237.893 502.442 243.649Z" fill="white"/>
<path d="M85.4987 362.766C66.0328 362.766 50.2373 379.048 50.2373 399.11V455.927C50.2373 476.023 66.0328 492.305 85.4987 492.305H140.619C160.085 492.305 175.848 476.023 175.848 455.927V399.11C175.848 379.048 160.085 362.766 140.619 362.766H85.4987ZM150.745 399.11V455.927C150.745 461.683 146.19 466.384 140.619 466.384H85.4987C79.9277 466.384 75.3725 461.683 75.3725 455.927V399.11C75.3725 393.354 79.9277 388.653 85.4987 388.653H140.619C146.19 388.653 150.745 393.354 150.745 399.11Z" fill="white"/>
<path d="M445.959 479.405C445.959 445.376 428.001 428.379 392.117 428.379H340.896V606.424H392.117C428.001 606.424 445.959 590.244 445.959 558.157V479.405ZM427.739 479.132V557.578C427.739 578.152 415.351 588.302 390.806 588.302H360.165V446.773H391.855C411.124 446.773 427.739 451.984 427.739 479.132Z" fill="white"/>
<path d="M609.3 606.424V587.757H540.154V523.856H600.616V505.19H540.154V447.045H607.203V428.379H520.884V606.424H609.3Z" fill="white"/>
<path d="M772.93 606.424V428.379H745.239L706.176 576.789L705.652 576.517L664.459 428.379H635.686V606.424H652.858V455.833H653.907L696.41 606.424H713.812L755.005 455.833H756.053V606.424H772.93Z" fill="white"/>
<path d="M915.726 606.424L865.849 428.379H843.663L792.475 606.424H811.449L825.967 552.366H881.153L895.67 606.424H915.726ZM876.401 534.007H830.981L852.642 453.619H854.478L876.401 534.007Z" fill="white"/>
<path d="M985.661 443.741C996.213 443.741 1007.81 445.955 1020.5 450.315V430.593C1009.12 427.016 997.262 425.381 985.399 425.381C949.22 425.381 931.294 442.379 931.294 476.407V560.882C931.294 592.969 949.22 609.183 985.399 609.183C997.786 609.183 1009.94 607.514 1021.28 603.971V583.67C1008.6 588.03 996.999 590.244 986.447 590.244C961.902 590.244 949.744 580.093 949.744 559.519V476.134C949.744 448.953 966.392 443.741 985.661 443.741Z" fill="white"/>
<path d="M630.579 756.929H618.913C609.245 756.929 602.92 755.055 602.92 743.576V728.384C602.92 722.423 604.297 718.131 607.279 715.44C610.425 712.988 616.553 711.762 625.631 711.762C631.955 711.762 640.443 712.988 651.487 715.236V700.249C641.819 698.818 633.528 698 626.614 698C612.195 698 602.331 700.487 596.989 705.596C591.68 710.74 588.895 718.54 588.895 728.997V739.659C588.895 762.855 596.989 771.678 614.751 771.678H626.024C636.478 771.678 642.016 774.369 642.016 787.278V804.514C642.016 810.884 640.246 815.21 636.674 817.253C633.135 819.501 627.794 820.523 621.075 820.523C612.588 820.523 602.527 818.888 590.861 815.414V832.036C602.527 834.285 612.195 835.306 620.092 835.306C632.545 835.306 641.623 832.65 647.358 827.097C653.256 821.784 656.239 811.905 656.239 797.77V788.096C656.239 764.286 648.931 756.929 630.579 756.929Z" fill="white"/>
<path d="M695.315 805.365V746.028H720.975V733.936H695.315V703.144H681.879V733.936H665.887V746.028H681.879V804.309C681.879 828.732 688.204 835.306 705.966 835.306C711.111 835.306 716.256 834.693 720.975 833.671V821.579C715.469 822.601 711.897 823.214 710.324 823.214C698.855 823.214 695.315 820.523 695.315 805.365Z" fill="white"/>
<path d="M798.982 767.386C798.982 760.812 798.392 755.26 797.179 750.763C795.016 741.941 792.46 737.411 785.939 734.55C778.828 731.654 775.288 731.859 765.785 731.859C756.511 731.859 752.775 731.654 745.86 734.55C736.389 738.433 732.817 750.15 732.817 767.386V801.857C732.817 816.436 735.177 826.075 742.092 830.401C749.399 835.306 754.544 835.306 765.785 835.306C774.895 835.306 779.024 835.306 785.939 832.65C795.213 828.937 798.982 818.48 798.982 801.857V767.386ZM785.349 804.514C785.349 812.723 784.366 818.071 780.401 820.523C775.878 823.419 772.896 823.214 765.785 823.214C758.903 823.214 755.724 823.419 751.398 820.523C747.433 818.071 746.45 812.723 746.45 804.514V764.286C746.45 755.055 747.826 749.537 750.383 747.255C753.168 745.007 758.28 743.985 765.785 743.985C773.486 743.985 778.631 745.007 781.187 747.255C783.973 749.537 785.349 755.055 785.349 764.286V804.514Z" fill="white"/>
<path d="M832.126 750.15V733.936H819.706V833.263H832.912V763.264C832.912 749.741 840.22 747.664 850.903 747.664H858.179V731.859H851.69C843.989 731.859 832.126 739.659 832.126 750.15Z" fill="white"/>
<path d="M900.631 731.859C880.313 731.859 868.843 739.25 868.843 765.751V804.923C868.843 825.258 879.92 835.306 901.811 835.306C910.102 835.306 918.819 833.876 927.7 831.219V817.049C918.426 820.319 910.298 821.988 903.613 821.988C891.357 821.988 882.279 818.275 882.279 802.675V787.687H930.452V765.751C930.452 739.25 920.195 731.859 900.631 731.859ZM899.844 744.189C910.528 744.189 917.213 746.437 917.213 759.994V775.595H882.279V759.994C882.279 746.437 889.391 744.189 899.844 744.189Z" fill="white"/>
</svg>
