<svg width="580" height="816" viewBox="0 0 580 816" fill="none" xmlns="http://www.w3.org/2000/svg">
<path d="M193.321 765.011H303.817C311.454 765.011 317.615 759.312 317.615 752.272C317.615 745.232 311.454 739.499 303.817 739.499H193.321C185.72 739.499 179.523 745.232 179.523 752.272C179.523 759.312 185.72 765.011 193.321 765.011Z" fill="#004AAD"/>
<path d="M220.954 612.008C220.954 640.168 245.669 662.998 276.184 662.998H497.138C527.653 662.998 552.368 640.168 552.368 612.008V408.017C552.368 379.857 527.653 357.027 497.138 357.027H276.184C245.669 357.027 220.954 379.857 220.954 408.017V612.008ZM248.587 408.017C248.587 393.937 260.944 382.505 276.184 382.505H497.138C512.378 382.505 524.771 393.937 524.771 408.017V612.008C524.771 626.088 512.378 637.52 497.138 637.52H276.184C260.944 637.52 248.587 626.088 248.587 612.008V408.017Z" fill="#004AAD"/>
<path d="M360.019 331.516C389.993 331.516 414.276 309.088 414.276 281.398V203.12C414.276 175.463 389.993 153.002 360.019 153.002H275.211C245.272 153.002 220.954 175.463 220.954 203.12V281.398C220.954 309.088 245.272 331.516 275.211 331.516H360.019ZM248.587 281.398V203.12C248.587 189.543 260.512 178.513 275.211 178.513H360.019C374.718 178.513 386.679 189.543 386.679 203.12V281.398C386.679 294.975 374.718 306.004 360.019 306.004H275.211C260.512 306.004 248.587 294.975 248.587 281.398Z" fill="#004AAD"/>
<path d="M54.7612 816H442.377C472.64 816 497.138 793.17 497.138 765.01V688.509H27.6328V127.524H469.542V179.452C473.144 178.882 497.138 178.514 497.138 178.514V51.023C497.138 22.8631 472.64 0 442.377 0H54.7612C24.4985 0 0 22.8631 0 51.023V765.01C0 793.17 24.4985 816 54.7612 816ZM27.6328 51.023C27.6328 36.9431 39.81 25.5115 54.7612 25.5115H442.377C457.328 25.5115 469.542 36.9431 469.542 51.023V102.013H27.6328V51.023ZM27.6328 714.021H469.542V765.01C469.542 779.057 457.328 790.522 442.377 790.522H54.7612C39.81 790.522 27.6328 779.057 27.6328 765.01V714.021Z" fill="#004AAD"/>
<path d="M441.908 239.795V295.712C441.908 315.491 459.273 331.516 480.673 331.516H541.235C562.635 331.516 580 315.491 580 295.712V239.795C580 220.049 562.635 204.025 541.235 204.025H480.673C459.273 204.025 441.908 220.049 441.908 239.795ZM552.367 239.795V295.712C552.367 301.411 547.396 306.004 541.235 306.004H480.673C474.513 306.004 469.541 301.411 469.541 295.712V239.795C469.541 234.129 474.513 229.503 480.673 229.503H541.235C547.396 229.503 552.367 234.129 552.367 239.795Z" fill="#004AAD"/>
<path d="M93.9947 357.027C72.5946 357.027 55.2295 373.051 55.2295 392.797V448.714C55.2295 468.493 72.5946 484.518 93.9947 484.518H154.592C175.992 484.518 193.321 468.493 193.321 448.714V392.797C193.321 373.051 175.992 357.027 154.592 357.027H93.9947ZM165.725 392.797V448.714C165.725 454.38 160.717 459.006 154.592 459.006H93.9947C87.8701 459.006 82.8623 454.38 82.8623 448.714V392.797C82.8623 387.131 87.8701 382.505 93.9947 382.505H154.592C160.717 382.505 165.725 387.131 165.725 392.797Z" fill="#004AAD"/>
</svg>
